{
    "asset": {
        "generator": "COLLADA2GLTF",
        "version": "2.0"
    },
    "scenes": [
        {
            "nodes": [
                0
            ]
        }
    ],
    "scene": 0,
    "nodes": [
        {
            "children": [
                1
            ],
            "matrix": [
                1.0,
                0.0,
                0.0,
                0.0,
                0.0,
                0.0,
                -1.0,
                0.0,
                0.0,
                1.0,
                0.0,
                0.0,
                0.0,
                0.0,
                0.0,
                1.0
            ],
            "name": "Z_UP"
        },
        {
            "mesh": 0
        }
    ],
    "meshes": [
        {
            "primitives": [
                {
                    "attributes": {
                        "NORMAL": 1,
                        "POSITION": 2
                    },
                    "indices": 0,
                    "mode": 4,
                    "material": 0
                },
                {
                    "attributes": {
                        "NORMAL": 4,
                        "POSITION": 5
                    },
                    "indices": 3,
                    "mode": 4,
                    "material": 1
                }
            ],
            "name": "geometry0"
        }
    ],
    "accessors": [
        {
            "bufferView": 0,
            "byteOffset": 0,
            "componentType": 5123,
            "count": 156,
            "max": [
                83
            ],
            "min": [
                0
            ],
            "type": "SCALAR"
        },
        {
            "bufferView": 1,
            "byteOffset": 0,
            "componentType": 5126,
            "count": 84,
            "max": [
                0.9388763308525086,
                0.9234570264816284,
                1.0
            ],
            "min": [
                -0.930751621723175,
                -0.9204341173171996,
                -1.0
            ],
            "type": "VEC3"
        },
        {
            "bufferView": 1,
            "byteOffset": 1008,
            "componentType": 5126,
            "count": 84,
            "max": [
                13.079999923706057,
                2.3399999141693117,
                25.309999465942384
            ],
            "min": [
                -11.40000057220459,
                -19.829999923706056,
                0.0
            ],
            "type": "VEC3"
        },
        {
            "bufferView": 0,
            "byteOffset": 312,
            "componentType": 5123,
            "count": 48,
            "max": [
                19
            ],
            "min": [
                0
            ],
            "type": "SCALAR"
        },
        {
            "bufferView": 1,
            "byteOffset": 2016,
            "componentType": 5126,
            "count": 20,
            "max": [
                0.280921995639801,
                0.6526432037353516,
                0.7060980200767517
            ],
            "min": [
                -0.2758151888847351,
                -0.6523541808128357,
                0.7056185007095337
            ],
            "type": "VEC3"
        },
        {
            "bufferView": 1,
            "byteOffset": 2256,
            "componentType": 5126,
            "count": 20,
            "max": [
                13.079999923706057,
                2.3399999141693117,
                25.309999465942384
            ],
            "min": [
                -11.40000057220459,
                -19.829999923706056,
                16.75
            ],
            "type": "VEC3"
        }
    ],
    "materials": [
        {
            "pbrMetallicRoughness": {
                "baseColorFactor": [
                    0.800000011920929,
                    0.800000011920929,
                    0.800000011920929,
                    1.0
                ],
                "metallicFactor": 0.0
            },
            "emissiveFactor": [
                0.0,
                0.0,
                0.0
            ],
            "doubleSided": true,
            "name": "default_ai_0.2_sh_0.2_tr_0.0_dc_r_0.8_g_0.8_b_0.8_sc_r_1.0_g_1.0_b_1.0_ec_r_0.0_g_0.0_b_0_eff"
        },
        {
            "pbrMetallicRoughness": {
                "baseColorFactor": [
                    1.0,
                    0.20000000298023225,
                    0.20000000298023225,
                    1.0
                ],
                "metallicFactor": 0.0
            },
            "emissiveFactor": [
                0.0,
                0.0,
                0.0
            ],
            "doubleSided": true,
            "name": "default_ai_0.2_sh_0.2_tr_0.0_dc_r_1.0_g_0.2_b_0.2_sc_r_1.0_g_1.0_b_1.0_ec_r_0.0_g_0.0_b_0_eff"
        }
    ],
    "bufferViews": [
        {
            "buffer": 0,
            "byteOffset": 2496,
            "byteLength": 408,
            "target": 34963
        },
        {
            "buffer": 0,
            "byteOffset": 0,
            "byteLength": 2496,
            "byteStride": 12,
            "target": 34962
        }
    ],
    "buffers": [
        {
            "byteLength": 2904,
            "uri": "data:application/octet-stream;base64,"
        }
    ]
}
