{
    "asset": {
        "generator": "COLLADA2GLTF",
        "version": "2.0"
    },
    "scenes": [
        {
            "nodes": [
                0
            ]
        }
    ],
    "scene": 0,
    "nodes": [
        {
            "children": [
                1
            ],
            "matrix": [
                1.0,
                0.0,
                0.0,
                0.0,
                0.0,
                0.0,
                -1.0,
                0.0,
                0.0,
                1.0,
                0.0,
                0.0,
                0.0,
                0.0,
                0.0,
                1.0
            ],
            "name": "Z_UP"
        },
        {
            "mesh": 0
        }
    ],
    "meshes": [
        {
            "primitives": [
                {
                    "attributes": {
                        "NORMAL": 1,
                        "POSITION": 2
                    },
                    "indices": 0,
                    "mode": 4,
                    "material": 0
                },
                {
                    "attributes": {
                        "NORMAL": 4,
                        "POSITION": 5
                    },
                    "indices": 3,
                    "mode": 4,
                    "material": 1
                }
            ],
            "name": "geometry0"
        }
    ],
    "accessors": [
        {
            "bufferView": 0,
            "byteOffset": 0,
            "componentType": 5123,
            "count": 213,
            "max": [
                107
            ],
            "min": [
                0
            ],
            "type": "SCALAR"
        },
        {
            "bufferView": 1,
            "byteOffset": 0,
            "componentType": 5126,
            "count": 108,
            "max": [
                0.9335346221923828,
                0.9177005290985109,
                0.000029099999665049837
            ],
            "min": [
                -0.9335315823554992,
                -0.9171032309532166,
                -1.0
            ],
            "type": "VEC3"
        },
        {
            "bufferView": 1,
            "byteOffset": 1296,
            "componentType": 5126,
            "count": 108,
            "max": [
                0.4230000078678131,
                9.06999969482422,
                13.100000381469729
            ],
            "min": [
                -26.74700164794922,
                -8.679999351501465,
                0.0
            ],
            "type": "VEC3"
        },
        {
            "bufferView": 0,
            "byteOffset": 426,
            "componentType": 5123,
            "count": 63,
            "max": [
                26
            ],
            "min": [
                0
            ],
            "type": "SCALAR"
        },
        {
            "bufferView": 1,
            "byteOffset": 2592,
            "componentType": 5126,
            "count": 27,
            "max": [
                0.0,
                0.03899089992046356,
                1.0
            ],
            "min": [
                -0.10146290063858032,
                0.0,
                0.9940749406814576
            ],
            "type": "VEC3"
        },
        {
            "bufferView": 1,
            "byteOffset": 2916,
            "componentType": 5126,
            "count": 27,
            "max": [
                0.4230000078678131,
                9.06999969482422,
                13.100000381469729
            ],
            "min": [
                -26.74700164794922,
                -8.679999351501465,
                11.010000228881836
            ],
            "type": "VEC3"
        }
    ],
    "materials": [
        {
            "pbrMetallicRoughness": {
                "baseColorFactor": [
                    1.0,
                    1.0,
                    1.0,
                    1.0
                ],
                "metallicFactor": 0.0
            },
            "emissiveFactor": [
                0.0,
                0.0,
                0.0
            ],
            "doubleSided": true,
            "name": "default_ai_0.2_sh_0.2_tr_0.0_dc_r_1.0_g_1.0_b_1.0_sc_r_1.0_g_1.0_b_1.0_ec_r_0.0_g_0.0_b_0_eff"
        },
        {
            "pbrMetallicRoughness": {
                "baseColorFactor": [
                    1.0,
                    0.20000000298023225,
                    0.20000000298023225,
                    1.0
                ],
                "metallicFactor": 0.0
            },
            "emissiveFactor": [
                0.0,
                0.0,
                0.0
            ],
            "doubleSided": true,
            "name": "default_ai_0.2_sh_0.2_tr_0.0_dc_r_1.0_g_0.2_b_0.2_sc_r_1.0_g_1.0_b_1.0_ec_r_0.0_g_0.0_b_0_eff"
        }
    ],
    "bufferViews": [
        {
            "buffer": 0,
            "byteOffset": 3240,
            "byteLength": 552,
            "target": 34963
        },
        {
            "buffer": 0,
            "byteOffset": 0,
            "byteLength": 3240,
            "byteStride": 12,
            "target": 34962
        }
    ],
    "buffers": [
        {
            "byteLength": 3792,
            "uri": "data:application/octet-stream;base64,"
        }
    ]
}
